<?xml version="1.0" ?><!DOCTYPE svg  PUBLIC '-//W3C//DTD SVG 1.1//EN'  'http://www.w3.org/Graphics/SVG/1.1/DTD/svg11.dtd'><svg height="64px" id="Layer_1" style="enable-background:new 0 0 64 64;" version="1.1" viewBox="0 0 64 64" width="64px" xml:space="preserve" xmlns="http://www.w3.org/2000/svg" xmlns:xlink="http://www.w3.org/1999/xlink"><style type="text/css">
	.st0{clip-path:url(#SVGID_2_);}
	.st1{fill:#475059;}
</style><g><g><defs><rect height="64" id="SVGID_1_" width="64"/></defs><clipPath id="SVGID_2_"><use style="overflow:visible;" xlink:href="#SVGID_1_"/></clipPath><g class="st0"><g><path class="st1" d="M62,62V49.2c0-2.9-2.4-5.2-5.2-5.2H56V11.1c0,2.2,1.8,3.9,4,3.9c2.2,0,4-1.8,4-4c0-2.2-1.8-4-4-4       c-2.2,0-4,1.8-4,3.9V4c0-2.2-1.8-4-4-4c-2.2,0-4,1.8-4,4v2h-2V4c0-2.2-1.8-4-4-4c-2.2,0-4,1.8-4,4v2h-2V4c0-2.2-1.8-4-4-4       c-2.2,0-4,1.8-4,4v2h-2V4c0-2.2-1.8-4-4-4c-2.2,0-4,1.8-4,4v2h-2V4c0-2.2-1.8-4-4-4C9.8,0,8,1.8,8,4v40H7.3       C4.4,44,2,46.3,2,49.2V62l-2,0l0,2l4,0V49.2C4,47.4,5.5,46,7.3,46H8v6c0,2.2,1.8,4,4,4c2.2,0,4-1.8,4-4v-2h2v2c0,2.2,1.8,4,4,4       c2.2,0,4-1.8,4-4v-2h2v2c0,2.2,1.8,4,4,4c2.2,0,4-1.8,4-4v-2h2v2c0,2.2,1.8,4,4,4c2.2,0,4-1.8,4-4v-2h2v2c0,2.2,1.8,4,4,4       c2.2,0,4-1.8,4-4v-6h0.8c1.8,0,3.2,1.5,3.2,3.2V64l4,0l0-2L62,62z M60,9c1.1,0,2,0.9,2,2c0,1.1-0.9,2-2,2s-2-0.9-2-2       C58,9.9,58.9,9,60,9z M48,40h-2V16h2V40z M48,8v6h-2V8H48z M38,40h-2V16h2V40z M38,8v6h-2V8H38z M28,40h-2V16h2V40z M28,8v6h-2       V8H28z M18,40h-2V16h2V40z M18,8v6h-2V8H18z M14,52c0,1.1-0.9,2-2,2c-1.1,0-2-0.9-2-2V4c0-1.1,0.9-2,2-2h0c1.1,0,2,0.9,2,2v2       v10v24v10V52z M16,48v-6h2v6H16z M24,52c0,1.1-0.9,2-2,2c-1.1,0-2-0.9-2-2v-2V40V16V6V4c0-1.1,0.9-2,2-2h0c1.1,0,2,0.9,2,2v2       v10v24v10V52z M26,48v-6h2v6H26z M34,52c0,1.1-0.9,2-2,2c-1.1,0-2-0.9-2-2v-2V40V16V6V4c0-1.1,0.9-2,2-2h0c1.1,0,2,0.9,2,2v2       v10v24v10V52z M36,48v-6h2v6H36z M44,52c0,1.1-0.9,2-2,2c-1.1,0-2-0.9-2-2v-2V40V16V6V4c0-1.1,0.9-2,2-2h0c1.1,0,2,0.9,2,2v2       v10v24v10V52z M46,48v-6h2v6H46z M54,52c0,1.1-0.9,2-2,2c-1.1,0-2-0.9-2-2v-2V40V16V6V4c0-1.1,0.9-2,2-2h0c1.1,0,2,0.9,2,2V52z       "/></g></g></g></g></svg>