<?xml version="1.0" ?><!DOCTYPE svg  PUBLIC '-//W3C//DTD SVG 1.1//EN'  'http://www.w3.org/Graphics/SVG/1.1/DTD/svg11.dtd'><svg height="512px" id="Layer_1" style="enable-background:new 0 0 512 512;" version="1.1" viewBox="0 0 512 512" width="512px" xml:space="preserve" xmlns="http://www.w3.org/2000/svg" xmlns:xlink="http://www.w3.org/1999/xlink"><g><path d="M158.625,147.978c1.498,0,3.009-0.764,4.096-2.252c1.991-2.767,1.774-6.978-0.472-9.437   c-0.797-0.884-19.459-21.612-3.826-49.039c20.072-35.126,11.762-50.512,2.98-66.808l-1.124-2.091   c-1.654-3.077-5.06-3.946-7.571-1.927c-2.551,2-3.264,6.152-1.597,9.23l1.135,2.134c7.842,14.517,13.022,24.113-2.813,51.837   c-17.054,29.884-3.803,56.694,5.582,66.719C156.053,147.434,157.32,147.978,158.625,147.978z" style="fill:#333333;"/><path d="M212.046,147.978c1.523,0,3.019-0.764,4.12-2.252c1.979-2.767,1.789-6.978-0.472-9.437   c-0.809-0.884-19.483-21.612-3.814-49.039c20.037-35.126,11.739-50.512,2.969-66.808l-1.135-2.091   c-1.641-3.077-5.034-3.946-7.585-1.927c-2.512,2-3.248,6.152-1.582,9.23l1.148,2.134c7.838,14.517,13.009,24.113-2.814,51.837   c-17.057,29.884-3.805,56.694,5.579,66.719C209.487,147.434,210.767,147.978,212.046,147.978z" style="fill:#333333;"/><path d="M104.513,147.978c1.497,0,3.009-0.764,4.096-2.252c1.99-2.767,1.774-6.978-0.473-9.437   c-0.797-0.884-19.459-21.612-3.825-49.039c20.072-35.126,11.762-50.512,2.98-66.808l-1.124-2.091   c-1.654-3.077-5.06-3.946-7.571-1.927c-2.551,2-3.263,6.152-1.596,9.23l1.135,2.134c7.841,14.517,13.022,24.113-2.813,51.837   c-17.054,29.884-3.803,56.694,5.582,66.719C101.941,147.434,103.208,147.978,104.513,147.978z" style="fill:#333333;"/><path d="M265.494,147.978c1.512,0,3.032-0.764,4.118-2.252c1.992-2.767,1.765-6.978-0.483-9.437   c-0.811-0.884-19.482-21.612-3.805-49.039c20.052-35.126,11.731-50.512,2.962-66.808l-1.124-2.091   c-1.655-3.077-5.063-3.946-7.584-1.927c-2.553,2-3.241,6.152-1.598,9.23l1.149,2.134c7.814,14.517,13.01,24.113-2.817,51.837   c-17.054,29.884-3.814,56.694,5.582,66.719C262.944,147.434,264.2,147.978,265.494,147.978z" style="fill:#333333;"/><path d="M318.936,147.978c1.509,0,3.03-0.764,4.119-2.252c1.992-2.767,1.765-6.978-0.483-9.437   c-0.811-0.884-19.481-21.612-3.805-49.039c20.048-35.126,11.728-50.512,2.959-66.808l-1.124-2.091   c-1.656-3.077-5.063-3.946-7.584-1.927c-2.55,2-3.238,6.152-1.599,9.23l1.15,2.134c7.814,14.517,13.009,24.113-2.812,51.837   c-17.057,29.884-3.817,56.694,5.576,66.719C316.387,147.434,317.643,147.978,318.936,147.978z" style="fill:#333333;"/><path d="M478.888,107.95c-0.167-1.846-0.628-3.764-1.259-5.722c-0.269-33.268,10.085-47.046,10.085-47.046   s-15.571,0.376-33.521,10.247c-0.378-0.556-0.753-1.078-1.121-1.612c0.548-13.498,3.164-26.982,6.937-36.925   c-2.231,1.226-11.725,5.229-21.322,12.425c-4.936-11.776-6.454-23.951-0.608-36.158c-45.618,32.681-72.799,69.196-72.821,98.545   c-0.022,22.853,5.7,58.666,60.984,58.666c32.563,0,49.141-12.468,52.222-36.662l0.721,0.712c-0.147-1.09-0.208-2.086-0.333-3.134   C479.205,117.149,479.266,112.748,478.888,107.95z M451.71,133.935c-3.564,6.202-5.335,8.026-28.27,8.675   c-22.886,0.649-27.148-4.317-31.369-12.114c-12.074-22.243,3.161-36.252,2.283-34.628c-0.858,1.614-5.492,15.916,16.573,27.587   c-10.831-13.495,8.878-29.65,16.18-37.123c0,19.156,7.776,37.123,7.776,37.123s12.573-7.386,21.646-33.979   C461.276,110.139,462.115,115.839,451.71,133.935z" style="fill:#333333;"/><path d="M457.174,179h-62.191C384.247,179,376,186.706,376,195.838V217h-17v-21.162   c0-9.132-6.577-16.838-13.54-16.838h-6.303c-6.963,0-11.157,7.706-11.157,16.838V217h-20v-21.162   c0-9.132-6.003-16.838-12.965-16.838h-6.303C281.77,179,277,186.706,277,195.838V217h-19v-21.162   c0-9.132-6.429-16.838-13.391-16.838h-6.301c-6.964,0-12.308,7.706-12.308,16.838V217h-19v-21.162   c0-9.132-5.855-16.838-12.816-16.838h-6.303c-6.964,0-11.881,7.706-11.881,16.838V217h-20v-21.162   c0-9.132-5.279-16.838-12.244-16.838h-6.303c-6.962,0-12.454,7.706-12.454,16.838V217h-18v-21.162   C107,186.706,99.874,179,92.91,179h-6.303C79.646,179,76,186.706,76,195.838V217H56v-21.162C56,186.706,49.447,179,42.483,179h-6.3   C29.22,179,25,186.706,25,195.838v297.621C25,502.592,29.22,509,36.184,509h6.3C49.447,509,56,502.592,56,493.459V481h20v12.459   C76,502.592,79.646,509,86.607,509h6.303c6.964,0,14.09-6.408,14.09-15.541V481h18v12.459c0,9.133,5.491,15.541,12.454,15.541   h6.303c6.964,0,12.244-6.408,12.244-15.541V481h20v12.459c0,9.133,4.917,15.541,11.881,15.541h6.303   c6.961,0,12.816-6.408,12.816-15.541V481h19v12.459c0,9.133,5.343,15.541,12.308,15.541h6.301c6.962,0,13.391-6.408,13.391-15.541   V481h19v12.459c0,9.133,4.77,15.541,11.732,15.541h6.303c6.962,0,12.965-6.408,12.965-15.541V481h20v12.459   c0,9.133,4.194,15.541,11.157,15.541h6.303c6.963,0,13.54-6.408,13.54-15.541V481h17v12.459c0,9.133,8.247,15.541,18.982,15.541   h62.191c10.735,0,19.826-6.408,19.826-15.541V195.838C477,186.706,467.909,179,457.174,179z M76,435H56V263h20V435z M125,435h-18   V263h18V435z M176,435h-20V263h20V435z M226,435h-19V263h19V435z M277,435h-19V263h19V435z M328,435h-20V263h20V435z M376,435h-17   V263h17V435z M427.803,476.572c-8.75,0-15.844-7.093-15.844-15.842c0-8.748,7.094-15.841,15.844-15.841   c8.746,0,15.84,7.093,15.84,15.841C443.643,469.479,436.549,476.572,427.803,476.572z M427.803,413.536   c-8.75,0-15.844-7.092-15.844-15.84c0-8.75,7.094-15.84,15.844-15.84c8.746,0,15.84,7.09,15.84,15.84   C443.643,406.444,436.549,413.536,427.803,413.536z" style="fill:#333333;"/></g></svg>