<?xml version="1.0" ?><!DOCTYPE svg  PUBLIC '-//W3C//DTD SVG 1.1//EN'  'http://www.w3.org/Graphics/SVG/1.1/DTD/svg11.dtd'><svg enable-background="new 0 0 224.919 181.801" height="181.801px" id="Layer_1" version="1.1" viewBox="0 0 224.919 181.801" width="224.919px" xml:space="preserve" xmlns="http://www.w3.org/2000/svg" xmlns:xlink="http://www.w3.org/1999/xlink"><g><path d="M192.817,61.803V4.883c0-1.302-0.419-2.372-1.256-3.208c-0.838-0.837-1.906-1.256-3.209-1.256h-26.785   c-1.303,0-2.372,0.419-3.209,1.256c-0.838,0.837-1.256,1.907-1.256,3.208v27.205l-34.04-28.46C120.087,1.209,116.552,0,112.46,0   s-7.627,1.209-10.604,3.627L1.55,87.193c-0.93,0.744-1.442,1.744-1.535,3c-0.093,1.255,0.232,2.348,0.977,3.279l8.649,10.323   c0.744,0.837,1.721,1.349,2.93,1.535c1.116,0.092,2.232-0.233,3.348-0.977l95.004-79.217c0.849-0.708,2.224-0.708,3.072,0   L209,104.354c0.744,0.65,1.721,0.977,2.93,0.977h0.419c1.209-0.187,2.186-0.698,2.93-1.535l8.648-10.323   c0.744-0.931,1.07-2.023,0.977-3.279c-0.092-1.256-0.604-2.256-1.533-3L192.817,61.803z" fill="#4F4F4E"/><path d="M191.281,101.817l-77.278-64.413c-0.853-0.703-2.234-0.703-3.087,0c0,0-66.268,54.807-77.22,63.979   c-0.847,0.71-1.534,2.189-1.538,3.294c-0.017,4.971-0.039,47.403-0.048,67.123c-0.002,5.522,4.473,10,9.996,10h140.711   c5.523,0,10-4.478,10-10v-66.703C192.817,103.993,192.13,102.524,191.281,101.817z M155.794,117.664   c-2.396,1.384-5.26,1.688-7.915,1.421c-3.013-0.503-4.901-1.909-6.083-2.436c-0.592-0.263-0.863-0.307-1.215-0.203   c-0.356,0.104-0.87,0.454-1.623,1.421l-5.713,5.983c-0.465,0.488-0.455,1.27,0.021,1.745c5.572,5.575,11.145,11.149,16.717,16.711   c0,0,3.66,5.472-3.354,12.976c-7.714,8.252-12.787,5.205-12.787,5.205c-5.703-5.715-11.181-11.867-16.624-18.089   c-0.443-0.507-1.18-0.523-1.645-0.036l-14.969,15.68c0.006,0.064-5.794,3.728-12.068-2.992s-1.996-11.422-1.931-11.416   l16.209-15.734c0.484-0.47,0.51-1.255,0.058-1.754c-2.604-2.863-5.23-5.68-7.91-8.396c-0.473-0.479-1.256-0.491-1.749-0.031   c-2.926,2.732-12.165,11.229-13.908,11.206c-2.077-0.025-11.153-9.35-15.303-13.505c-0.506-0.583-0.325-0.973-0.104-1.427   c0,0,24.786-26.044,27.413-27.395c2.628-1.351,24.944-3.751,29.981-4.51c7.752-1.04,4.591,4.286,4.591,4.286   s-8.882,8.898-15.048,15.073c-0.477,0.477-0.477,1.249,0,1.726c2.578,2.572,5.156,5.153,7.734,7.732   c0.477,0.476,1.254,0.481,1.738,0.013l7.891-7.66c1.336-0.892,1.336-1.641,1.221-2.841c-0.117-1.148-0.533-2.672-0.41-4.26   c0-0.072,0.008-0.133,0-0.203c-0.182-5.625,1.869-10.637,6.291-13.189c2.377-1.374,5.352-1.992,8.117-1.624   c2.771,0.368,5.415,1.663,7.914,3.449c0.016,0.011,0.671,0.437,1.609,1.435c1.58,1.482-0.316,2.333-0.316,2.333l-10.678,5.046   c-1.246,0.576-1.791,2.052-1.217,3.299l3.722,8.077c0.575,1.247,2.052,1.792,3.3,1.218l10.891-5.234c0,0,2.178-1.181,2.398,0.874   C161.509,105.183,161.694,113.501,155.794,117.664z" fill="#4F4F4E"/></g></svg>