<?xml version="1.0" ?><!DOCTYPE svg  PUBLIC '-//W3C//DTD SVG 1.1//EN'  'http://www.w3.org/Graphics/SVG/1.1/DTD/svg11.dtd'><svg height="43.3492mm" style="shape-rendering:geometricPrecision; text-rendering:geometricPrecision; image-rendering:optimizeQuality; fill-rule:evenodd; clip-rule:evenodd" version="1.1" viewBox="0 0 4335 4335" width="43.3492mm" xml:space="preserve" xmlns="http://www.w3.org/2000/svg" xmlns:xlink="http://www.w3.org/1999/xlink"><defs><style type="text/css">
   <![CDATA[
    .fil0 {fill:black}
   ]]>
  </style></defs><g id="Layer_x0020_1"><path class="fil0" d="M3764 3994l-2006 -1942 0 -100 -427 -448 -149 71 -128 -85c0,0 -135,-57 -220,43 -85,100 -100,128 -100,128l0 149 -228 249 -469 -398 242 -270 149 0 149 -142 14 -135 605 -661c0,0 242,-156 590,-107 348,50 498,220 498,220 0,0 28,92 -171,85 -199,-7 -313,0 -455,57 -142,57 -178,114 -178,114 0,0 -21,78 50,149 71,71 85,135 85,135l-43 149 398 420 107 0 1988 1931 -302 387zm-2415 -455c77,0 139,62 139,139 0,77 -62,139 -139,139 -77,0 -139,-62 -139,-139 0,-77 62,-139 139,-139zm1526 -1252l284 -327c0,0 114,-71 398,-71 284,0 619,0 683,-413 64,-413 -64,-818 -64,-818 0,0 -78,-85 -142,64 -64,149 -220,498 -220,498 0,0 -128,92 -277,7 -149,-85 -178,-192 -114,-306 64,-114 213,-413 213,-413 0,0 14,-71 -107,-78 -121,-7 -697,213 -718,590 -21,377 50,398 -36,541 -85,142 -313,377 -313,377l413 348zm-427 541l-413 -398 -875 953c0,0 -263,306 -14,541 249,235 487,-73 597,-213 110,-140 704,-882 704,-882z"/></g></svg>