<?xml version="1.0" ?><svg enable-background="new 0 0 48 48" id="Layer_1" version="1.1" viewBox="0 0 48 48" xml:space="preserve" xmlns="http://www.w3.org/2000/svg" xmlns:xlink="http://www.w3.org/1999/xlink"><g><path d="M37.2,16.7c0.3-1,0.5-2,0.5-3.1c0-1.1-0.9-2-2-2h-9.5V8.5c0-2.4,1.2-4,1.9-4c0.5,0,1.3,0.8,1.7,2.2c0.3,1,1.4,1.7,2.4,1.4   c1-0.3,1.7-1.4,1.4-2.4c-0.8-3.1-3-5.1-5.5-5.1c-3.3,0-5.8,3.5-5.8,8v3.3h-9.2c-1.1,0-2,0.9-2,2c0,1.1,0.2,2.1,0.5,3.1H37.2z"/><g><path d="M22,20.7h-7.9H5.3H2.7H2.5c-1.1,0-2,0.9-2,2s0.9,2,2,2h0.9v19H2.5c-1.1,0-2,0.9-2,2s0.9,2,2,2h2.9H22V20.7z M17.5,36.6    c-1.1,0-2-0.9-2-2v-1c0-1.1,0.9-2,2-2s2,0.9,2,2v1C19.5,35.7,18.6,36.6,17.5,36.6z"/><path d="M45.5,43.6h-0.9v-19h0.9c1.1,0,2-0.9,2-2s-0.9-2-2-2h-2.9h-7.8H26v26.8h16.7h2.9c1.1,0,2-0.9,2-2S46.6,43.6,45.5,43.6z     M32.5,34.6c0,1.1-0.9,2-2,2s-2-0.9-2-2v-1c0-1.1,0.9-2,2-2s2,0.9,2,2V34.6z"/></g></g></svg>